<svg width="315" height="312" viewBox="0 0 315 312" fill="none" xmlns="http://www.w3.org/2000/svg">
<path d="M11.9475 305.922C8.83269 309.037 3.60051 308.855 3.60051 308.855C3.60051 308.855 3.41843 303.623 6.53324 300.508C9.64804 297.393 14.8802 297.575 14.8802 297.575C14.8802 297.575 15.0623 302.807 11.9475 305.922Z" fill="#FFF1CE"/>
<circle cx="63" cy="187" r="4" fill="#FFF1CE"/>
<circle cx="221" cy="197" r="4" fill="#FFF1CE"/>
<circle cx="308" cy="163" r="4" fill="#FFF1CE"/>
<circle cx="235.5" cy="4.5" r="3.5" fill="#FFF1CE"/>
<circle cx="58.5" cy="105.5" r="3.5" fill="#FFF1CE"/>
<circle cx="160" cy="46" r="3" fill="#FFF1CE"/>
<path d="M264.322 184.432C265.236 188.542 268.159 192.104 271.903 194.205C275.466 196.215 279.302 196.58 283.321 196.397C283.504 196.397 283.686 196.397 283.778 196.397C283.778 196.215 283.778 196.032 283.778 195.849C283.412 190.552 281.586 185.345 278.663 180.961C275.74 176.759 271.812 173.288 267.976 170C265.053 174.202 263.226 179.773 264.322 184.432Z" fill="#AEDC90"/>
<path d="M264.322 184.432C265.236 188.542 268.159 192.104 271.903 194.205C275.466 196.215 279.302 196.58 283.321 196.397C283.504 196.397 283.686 196.397 283.778 196.397C266.24 186.624 267.885 170 267.885 170C265.053 174.202 263.226 179.773 264.322 184.432Z" fill="#7CA661"/>
<path d="M268.707 178.403C269.529 182.514 271.995 186.533 274.644 189.638C277.018 192.378 279.941 194.845 283.23 196.489C283.412 196.489 283.595 196.489 283.686 196.489C283.686 196.306 283.686 196.123 283.686 195.941C280.398 194.114 277.475 192.013 275.009 189.09C273.639 187.446 272.451 185.71 271.447 183.792C270.533 182.057 269.894 180.139 269.255 178.312C269.163 177.855 268.615 178.038 268.707 178.403Z" fill="#39700B"/>
<path d="M98.7957 82.7482C104 80.5971 108.788 76.8501 111.98 73.1725C118.433 65.6785 119.474 54.6457 117.322 45.0007C116.212 39.9353 114.269 34.9393 111.147 30.776C103.237 19.9514 89.4976 13.9839 76.175 13.0819C67.9177 12.5268 58.8972 14.8166 51.9583 19.2575C40.648 26.6127 35.5826 42.2945 41.4806 55.409C46.8929 67.4133 55.7053 65.1928 65.4197 70.5357C73.3994 74.9072 78.1873 83.789 88.1792 84.691C91.7181 84.9686 95.3956 84.2053 98.7957 82.7482Z" fill="#F4F4F4"/>
<path d="M41.5501 55.3395C46.9625 67.3438 55.7748 65.1233 65.4892 70.4663C73.4689 74.8378 78.2568 83.7195 88.2487 84.6216C91.7182 84.8991 95.3264 84.1358 98.7958 82.6787C100.877 81.846 102.82 80.7358 104.694 79.4868C81.4486 78.3072 54.3871 60.4049 49.6686 45.7639C46.338 35.3556 50.2237 24.8779 54.1095 17.8696C53.3462 18.286 52.6523 18.7023 51.9584 19.1186C40.7175 26.5432 35.6521 42.2251 41.5501 55.3395Z" fill="#E3E3E3"/>
<path d="M93.9384 67.8988C102.408 67.8988 109.273 61.0331 109.273 52.5639C109.273 44.0947 102.408 37.229 93.9384 37.229C85.4692 37.229 78.6035 44.0947 78.6035 52.5639C78.6035 61.0331 85.4692 67.8988 93.9384 67.8988Z" fill="#EBB64A"/>
<path d="M97.8936 64.8458C89.4282 64.8458 82.5587 57.9763 82.5587 49.5109C82.5587 45.4864 84.1546 41.8088 86.722 39.0332C81.9342 41.6006 78.6035 46.666 78.6035 52.564C78.6035 61.0294 85.473 67.8989 93.9384 67.8989C98.3793 67.8989 102.334 66.0254 105.11 63.0417C102.959 64.2213 100.461 64.8458 97.8936 64.8458Z" fill="#E3A63B"/>
<path d="M105.387 53.5351C103.306 55.1311 103.583 50.3432 100.877 46.8738C98.171 43.4044 93.4526 42.5023 95.5343 40.9064C97.6159 39.3104 101.502 40.7676 104.208 44.237C106.983 47.7759 107.469 51.8698 105.387 53.5351Z" fill="white"/>
<path d="M230.085 18.7907C226.807 17.6106 223.135 17.7417 219.923 19.2496C213.105 22.5277 201.566 28.8216 200.123 35.181C198.091 44.3596 221.496 55.9639 244.443 75.2389C267.389 94.5139 269.881 102.25 274.011 95.6284C278.141 89.0067 294.532 71.633 281.55 51.2435C271.323 35.1154 242.017 23.1177 230.085 18.7907Z" fill="#ECB579"/>
<path d="M274.011 95.6283C276.305 91.9569 282.468 84.8763 285.156 75.8288C281.55 79.3036 277.027 82.1883 271.716 80.6804C259.194 77.1401 235.002 47.1786 216.907 35.9021C211.007 32.1651 206.221 30.9194 202.549 30.9194C201.369 32.3618 200.517 33.8041 200.189 35.2465C198.157 44.425 221.562 56.0294 244.508 75.3044C267.324 94.5138 269.88 102.25 274.011 95.6283Z" fill="#DFA164"/>
<path d="M228.643 59.3071C231.134 58.5859 233.822 58.5859 236.445 58.5204C237.1 58.5204 237.756 58.5204 238.411 58.5204C249.032 58.2581 257.686 54.9145 262.866 49.014C263.98 47.7028 264.964 46.326 265.947 44.9492C266.34 44.3591 266.734 43.7691 267.193 43.179C268.111 41.8678 269.16 40.6221 270.209 39.3765C269.75 39.0487 269.291 38.7209 268.832 38.3931C267.783 39.6387 266.799 40.8844 265.816 42.1956C265.423 42.7857 264.964 43.3757 264.57 43.9658C263.652 45.277 262.669 46.6538 261.62 47.8994C256.769 53.4721 248.508 56.6191 238.411 56.8813C237.756 56.8813 237.166 56.8813 236.51 56.8813C233.757 56.8813 231.003 56.9469 228.249 57.7336C226.741 58.1925 225.365 58.7826 224.053 59.5693C224.578 59.8972 225.037 60.2905 225.561 60.6183C226.479 60.0938 227.528 59.6349 228.643 59.3071Z" fill="#F2D0A4"/>
<path d="M216.383 44.0317C217.563 44.3595 218.743 44.6217 219.857 44.9495C225.561 46.3919 232.249 47.572 238.542 45.474C243.263 43.9005 247.196 40.688 250.737 37.3444C252.966 35.312 255.064 33.1485 257.162 31.0505C256.637 30.7883 256.178 30.4605 255.654 30.1982C253.687 32.2306 251.655 34.1975 249.622 36.0987C246.213 39.2457 242.476 42.3926 238.018 43.835C232.183 45.7363 225.758 44.6217 220.251 43.2449C219.071 42.9827 217.956 42.6549 216.776 42.3271C211.99 41.0814 207.007 39.7702 201.959 39.7702C201.631 39.7702 201.304 39.7702 200.976 39.7702C201.304 40.2947 201.631 40.8847 202.025 41.4092C206.876 41.5403 211.728 42.786 216.383 44.0317Z" fill="#F2D0A4"/>
<path d="M219.726 53.0787C224.25 51.6364 229.036 51.702 232.773 51.8986C233.101 51.8986 233.429 51.9642 233.822 51.9642C236.313 52.0953 238.87 52.2265 241.427 51.702C244.64 50.9808 247.393 49.1451 249.95 47.3749C253.949 44.5558 258.08 41.4088 261.161 37.1474C261.817 36.2295 262.341 35.3772 262.866 34.3938C262.407 34.066 261.948 33.8037 261.423 33.5415C260.964 34.4594 260.44 35.3117 259.784 36.164C256.899 40.2287 252.9 43.3101 248.967 45.9981C246.541 47.7027 243.918 49.4073 240.968 50.0629C238.673 50.5874 236.182 50.4563 233.822 50.3252C233.494 50.3252 233.166 50.2596 232.773 50.2596C228.905 50.0629 223.857 49.9974 219.136 51.5053C217.694 51.9642 216.383 52.5543 215.137 53.2099C215.596 53.6032 216.12 53.931 216.645 54.3244C217.628 53.7999 218.677 53.4065 219.726 53.0787Z" fill="#F2D0A4"/>
<path d="M235.133 31.3128C232.052 32.6896 228.184 32.6896 223.332 31.3128C218.546 29.9361 214.023 27.707 210.023 24.7567C209.499 25.0845 209.04 25.4123 208.515 25.7401C212.777 28.9526 217.694 31.444 222.873 32.9519C228.118 34.4598 232.38 34.4598 235.854 32.8863C239.591 31.1817 242.017 27.9692 244.115 24.4945C243.591 24.2322 243.066 24.0356 242.542 23.8389C240.509 26.9858 238.411 29.8705 235.133 31.3128Z" fill="#F2D0A4"/>
<path d="M213.76 22.4619C217.694 24.6254 222.087 26.5267 226.741 26.9856C228.839 27.1823 230.609 27.0512 232.117 26.4611C234.346 25.6744 236.248 23.9698 237.625 21.6751C237.1 21.4785 236.576 21.2162 236.051 21.0195C234.871 22.8552 233.363 24.232 231.593 24.8221C230.347 25.281 228.839 25.4121 226.938 25.2154C222.939 24.8221 219.071 23.2486 215.53 21.4129C214.94 21.8063 214.35 22.1341 213.76 22.4619Z" fill="#F2D0A4"/>
<path d="M240.509 36.0331C233.822 40.4913 224.775 41.0813 217.563 37.541C215.858 36.6887 214.154 35.6397 212.58 34.5908C209.695 32.755 206.745 30.7882 203.27 30.067C202.812 30.526 202.353 31.0505 201.959 31.5749C202.287 31.6405 202.549 31.6405 202.877 31.7061C206.024 32.3617 208.778 34.1318 211.662 35.9675C213.301 37.0165 215.071 38.1311 216.842 39.0489C224.578 42.8515 234.281 42.1959 241.427 37.4099C245.164 34.9186 248.18 31.3783 250.081 27.3135C249.557 27.0512 249.098 26.8545 248.573 26.5923C246.803 30.3948 244.05 33.6729 240.509 36.0331Z" fill="#F2D0A4"/>
<path d="M267.061 91.6291C269.094 85.3352 270.995 79.4347 275.322 74.8454C276.502 73.5998 277.879 72.4852 279.19 71.3707C279.715 70.9118 280.239 70.4528 280.829 69.9939C282.796 68.2893 284.632 66.4536 286.402 64.5523C286.336 63.8311 286.205 63.11 286.074 62.3232C284.173 64.6179 282.009 66.7814 279.715 68.7483C279.19 69.2072 278.666 69.6661 278.141 70.0595C276.764 71.174 275.322 72.3541 274.076 73.6653C269.487 78.5169 267.455 84.8763 265.422 91.1046C265.16 91.9569 264.898 92.8092 264.57 93.6615C265.029 94.1204 265.488 94.5138 265.947 94.9072C266.34 93.7926 266.668 92.7436 267.061 91.6291Z" fill="#F2D0A4"/>
<path d="M275.453 93.4645C275.847 92.8744 276.306 92.2844 276.765 91.6288C276.502 90.0553 276.371 88.4163 276.633 86.8428C277.092 83.6959 278.731 80.7456 280.436 78.0576C282.206 75.2385 284.173 72.4849 286.271 69.928C286.336 69.0102 286.402 68.0923 286.402 67.1089C283.714 70.3214 281.223 73.665 278.994 77.1397C277.158 80.0244 275.388 83.1058 274.929 86.5806C274.667 88.9408 274.929 91.2354 275.453 93.4645Z" fill="#F2D0A4"/>
<path d="M261.489 82.2536C263.915 78.91 266.865 75.9598 269.75 73.0751C271.848 70.9115 274.077 68.748 276.044 66.3878C279.19 62.6508 281.682 58.7172 283.452 54.5868C283.124 53.9312 282.796 53.3412 282.403 52.6855C280.698 57.0126 278.076 61.3396 274.732 65.2733C272.765 67.5679 270.602 69.797 268.504 71.895C265.619 74.8452 262.603 77.861 260.112 81.2702C258.866 82.9748 257.817 84.745 257.031 86.4496C257.49 86.8429 257.883 87.3018 258.342 87.6952C259.129 85.8595 260.178 84.0238 261.489 82.2536Z" fill="#F2D0A4"/>
<path d="M251.065 65.4046C251.851 65.0112 252.704 64.6179 253.49 64.159C258.014 61.9299 262.669 59.6352 266.537 56.2916C270.274 53.0791 273.355 48.8832 275.519 44.0317C275.126 43.6383 274.667 43.2449 274.208 42.8516C272.11 47.7031 269.159 51.8334 265.422 55.0459C261.685 58.2584 257.096 60.4875 252.704 62.7166C251.917 63.11 251.065 63.5033 250.278 63.9623C246.41 65.9291 242.476 68.1582 239.198 71.1084C239.657 71.4362 240.05 71.8296 240.509 72.1574C243.656 69.4038 247.393 67.3059 251.065 65.4046Z" fill="#F2D0A4"/>
<path d="M248.901 78.9756C251.786 76.2876 255.129 73.9929 258.342 71.8294C261.686 69.5348 265.16 67.1746 268.176 64.3554C272.962 59.8973 276.502 54.3246 279.912 48.9486C279.584 48.4896 279.19 48.0307 278.797 47.5718C275.388 53.0134 271.782 58.7172 267.062 63.1754C264.111 65.9289 260.702 68.2891 257.424 70.5182C254.146 72.7473 250.737 75.0419 247.787 77.8611C247.721 77.9266 247.655 77.9922 247.59 78.0577C247.983 78.32 248.442 78.7133 248.901 78.9756C248.836 79.0411 248.836 79.0411 248.901 78.9756Z" fill="#F2D0A4"/>
<path d="M263.581 283.033C262.394 283.307 261.206 284.586 260.476 285.225C259.106 286.413 257.644 287.326 256 288.148C256.548 288.97 257.827 289.427 258.74 289.609C259.745 289.792 260.658 289.609 261.663 289.427C262.12 289.335 262.577 289.153 263.033 288.97C264.403 288.148 266.778 284.768 265.043 283.398C264.586 283.033 264.038 282.942 263.581 283.033Z" fill="#7CA661"/>
<path d="M144.658 3.92763C143.654 3.01423 143.197 1.3701 142.74 0C142.009 0.730722 141.096 1.18743 140 1.27877C140.457 3.28826 141.644 5.11506 143.471 6.02846C143.562 5.38908 144.11 4.38434 144.658 3.92763Z" fill="#AEDC90"/>
<path d="M150.129 159.466L147.754 157C147.754 157 147.389 162.937 142 165.129L144.192 166.773C144.192 166.773 148.759 164.947 150.129 159.466Z" fill="#AEDC90"/>
<path d="M10.9352 226C9.38244 226.913 7.92099 227.735 6.36821 228.649C5.45481 229.197 4.54141 229.654 3.90202 230.476C3.1713 231.298 2.44058 232.759 3.628 233.49C4.81542 234.221 7.00759 233.033 8.01234 232.394C9.01708 231.754 10.0218 231.024 10.6612 229.928C11.94 227.918 10.7525 226.091 10.9352 226Z" fill="#7CA661"/>
<path d="M18.1511 83.8553C18.6078 86.1388 20.252 87.9656 22.2614 89.153C24.1796 90.2491 26.2804 90.4318 28.4726 90.3404C28.5639 90.3404 28.6552 90.3404 28.7466 90.3404C28.7466 90.2491 28.7466 90.1578 28.7466 90.0664C28.5639 87.1435 27.5592 84.4033 25.9151 81.9371C24.3623 79.6536 22.2614 77.8268 20.1606 76C18.6078 78.2835 17.6031 81.2977 18.1511 83.8553Z" fill="#AEDC90"/>
<path d="M18.1511 83.8553C18.6078 86.1388 20.252 87.9656 22.2614 89.153C24.1796 90.2491 26.2804 90.4318 28.4726 90.3404C28.5639 90.3404 28.6552 90.3404 28.7466 90.3404C19.2472 85.0427 20.1606 76 20.1606 76C18.6078 78.2835 17.6031 81.2977 18.1511 83.8553Z" fill="#7CA661"/>
<path d="M20.5257 80.5669C20.9824 82.7591 22.2612 84.9512 23.7226 86.5954C25.0014 88.0568 26.5542 89.4269 28.381 90.3403C28.4723 90.3403 28.5637 90.3403 28.655 90.3403C28.655 90.249 28.655 90.1576 28.655 90.0663C26.9196 89.0615 25.2754 87.9655 23.9967 86.3213C23.2659 85.4079 22.6266 84.4945 22.0785 83.4898C21.5305 82.485 21.2565 81.4803 20.8911 80.4756C20.7998 80.2929 20.5257 80.3842 20.5257 80.5669Z" fill="#39700B"/>
<path d="M314.595 50.8553C314.139 53.1388 312.495 54.9656 310.485 56.153C308.567 57.2491 306.466 57.4318 304.274 57.3404C304.183 57.3404 304.091 57.3404 304 57.3404C304 57.2491 304 57.1578 304 57.0664C304.183 54.1435 305.187 51.4033 306.832 48.9371C308.384 46.6536 310.485 44.8268 312.586 43C314.139 45.2835 315.143 48.2977 314.595 50.8553Z" fill="#AEDC90"/>
<path d="M314.595 50.8553C314.139 53.1388 312.495 54.9656 310.485 56.153C308.567 57.2491 306.466 57.4318 304.274 57.3404C304.183 57.3404 304.091 57.3404 304 57.3404C313.499 52.0427 312.586 43 312.586 43C314.139 45.2835 315.143 48.2977 314.595 50.8553Z" fill="#7CA661"/>
<path d="M312.221 47.5669C311.764 49.7591 310.485 51.9512 309.024 53.5954C307.745 55.0568 306.192 56.4269 304.366 57.3403C304.274 57.3403 304.183 57.3403 304.092 57.3403C304.092 57.249 304.092 57.1576 304.092 57.0663C305.827 56.0615 307.471 54.9655 308.75 53.3213C309.481 52.4079 310.12 51.4945 310.668 50.4898C311.216 49.485 311.49 48.4803 311.855 47.4756C311.947 47.2929 312.221 47.3842 312.221 47.5669Z" fill="#39700B"/>
<path d="M75.9125 291.65C78.3825 288.485 82.9365 287.945 86.1012 290.415C88.8799 292.576 89.6518 296.358 88.1081 299.369L101.539 304L112.19 261.316C110.724 261.316 109.18 260.852 107.868 259.849C104.858 257.456 104.317 253.134 106.633 250.046C108.717 247.345 112.499 246.65 115.432 248.194L121.067 225.578L103.237 214L92.0446 222.182C92.7393 224.42 92.4305 226.967 90.8868 228.897C88.494 231.985 84.0172 232.602 80.8525 230.286L51.2899 251.822C51.9074 252.053 52.5249 252.362 53.0652 252.748C55.5352 254.678 55.9983 258.305 54.0686 260.852C52.1389 263.322 48.5112 263.786 45.964 261.856C44.4974 260.698 43.7256 259 43.7256 257.302L34 264.403L57.3105 288.64L74.3688 294.506C74.7547 293.58 75.2178 292.576 75.9125 291.65Z" fill="#EBB64A"/>
<path d="M103.391 214.077L92.1989 222.259C92.8936 224.497 92.5848 227.045 91.0411 228.974C88.6483 232.062 84.1714 232.679 81.0068 230.364L51.4442 251.899C52.0617 252.13 52.6792 252.439 53.2195 252.825C55.6895 254.755 56.1526 258.382 54.2229 260.93C52.2932 263.4 48.6654 263.863 46.1183 261.933C44.6517 260.775 43.8799 259.077 43.8799 257.379L34.1543 264.48L57.4648 288.717L121.221 225.578L103.391 214.077Z" fill="#EEC94D"/>
<path d="M79.4632 253.751C77.8423 255.835 74.9092 256.144 72.8252 254.6C70.7411 252.979 70.4324 250.046 71.9761 247.962C73.597 245.878 76.5301 245.569 78.6142 247.113C80.6982 248.734 81.0842 251.744 79.4632 253.751Z" fill="#EBB64A"/>
<path d="M110.415 228.974C109.412 230.287 107.482 230.518 106.17 229.515C104.858 228.511 104.626 226.582 105.63 225.269C106.633 223.957 108.563 223.726 109.875 224.729C111.187 225.733 111.419 227.662 110.415 228.974Z" fill="#EBB64A"/>
<path d="M66.5729 274.823C64.7976 277.062 61.5558 277.448 59.3174 275.749C57.0789 273.974 56.693 270.732 58.3911 268.494C60.1664 266.255 63.4083 265.87 65.6467 267.568C67.9623 269.343 68.3482 272.585 66.5729 274.823Z" fill="#EBB64A"/>
<path d="M99.3774 280.844C97.9108 282.773 95.1321 283.082 93.2024 281.616C91.2727 280.149 90.964 277.37 92.4305 275.441C93.8971 273.511 96.6758 273.202 98.6055 274.669C100.535 276.135 100.844 278.914 99.3774 280.844Z" fill="#CC9431"/>
<path d="M220.761 249.391C220.761 249.391 196.184 269.829 190.751 269.829C185.318 269.829 181.524 261.291 175.573 268.449C169.537 275.606 182.817 280.522 182.817 280.522C182.817 280.522 179.626 290.008 186.353 293.285C193.079 296.562 193.769 287.938 195.494 280.436C197.132 272.933 229.557 259.825 229.557 259.825L220.761 249.391Z" fill="#F2D0A4"/>
<path d="M300.185 231.453C311.827 210.929 292.768 186.007 269.916 191.871C269.571 191.957 269.312 192.043 268.967 192.13C251.375 197.304 214.725 247.062 215.759 251.46C217.398 258.532 224.814 250.598 221.968 256.634C219.123 262.671 216.018 266.896 231.541 263.706C247.149 260.515 292.079 244.82 299.754 232.143C299.926 231.885 300.099 231.626 300.185 231.453Z" fill="#C89059"/>
<path d="M256.722 215.5C273.107 200.236 285.783 196.786 292.424 196.269C286.387 191.785 278.453 189.715 269.916 191.871C269.571 191.957 269.312 192.043 268.967 192.13C251.375 197.304 214.725 247.062 215.759 251.46C217.398 258.532 224.814 250.598 221.968 256.634C219.123 262.671 216.018 266.896 231.541 263.706C233.869 263.188 236.887 262.412 240.337 261.464C238.957 251.719 238.871 232.143 256.722 215.5Z" fill="#BA7F4A"/>
<path d="M265.259 220.329C264.397 220.846 263.189 220.587 262.672 219.725C262.155 218.863 262.413 217.655 263.276 217.138C264.138 216.621 265.345 216.879 265.863 217.742C266.38 218.604 266.121 219.811 265.259 220.329Z" fill="#BA7F4A"/>
<path d="M257.584 230.246C256.549 230.85 255.256 230.591 254.566 229.556C253.962 228.521 254.221 227.228 255.256 226.538C256.291 225.934 257.584 226.193 258.274 227.228C258.964 228.263 258.619 229.556 257.584 230.246Z" fill="#BA7F4A"/>
<path d="M251.892 241.543C250.858 242.147 249.564 241.888 248.874 240.853C248.271 239.818 248.529 238.525 249.564 237.835C250.599 237.231 251.892 237.49 252.582 238.525C253.272 239.56 252.841 240.853 251.892 241.543Z" fill="#BA7F4A"/>
<path d="M261.723 237.921C260.947 238.438 259.912 238.18 259.481 237.403C258.964 236.627 259.222 235.592 259.999 235.161C260.775 234.644 261.809 234.903 262.241 235.679C262.758 236.455 262.499 237.403 261.723 237.921Z" fill="#BA7F4A"/>
<path d="M275.694 215.068C274.918 215.586 273.883 215.327 273.452 214.551C272.934 213.775 273.193 212.74 273.969 212.309C274.745 211.791 275.78 212.05 276.211 212.826C276.729 213.602 276.47 214.637 275.694 215.068Z" fill="#BA7F4A"/>
<path d="M201.9 176.8C215.1 176.8 225.8 166.1 225.8 152.9C225.8 139.7 215.1 129 201.9 129C188.7 129 178 139.7 178 152.9C178 166.1 188.7 176.8 201.9 176.8Z" fill="#EBB64A"/>
<path d="M201.9 174.468C213.812 174.468 223.468 164.812 223.468 152.9C223.468 140.988 213.812 131.332 201.9 131.332C189.988 131.332 180.332 140.988 180.332 152.9C180.332 164.812 189.988 174.468 201.9 174.468Z" fill="white"/>
<path d="M182.664 152.252H197.237C198.338 152.252 198.921 150.892 198.143 150.115L187.845 139.752C187.327 139.234 186.42 139.298 185.967 139.817C183.441 142.861 181.822 146.682 181.433 150.827C181.368 151.605 181.951 152.252 182.664 152.252Z" fill="#EEC94D"/>
<path d="M197.301 153.483H182.663C181.886 153.483 181.303 154.131 181.433 154.908C181.821 159.053 183.505 162.875 185.967 165.919C186.42 166.502 187.327 166.566 187.845 165.983L198.143 155.685C198.985 154.843 198.403 153.483 197.301 153.483Z" fill="#EEC94D"/>
<path d="M199.827 132.433C195.682 132.821 191.861 134.505 188.817 136.967C188.234 137.42 188.169 138.327 188.752 138.845L199.05 149.143C199.827 149.92 201.188 149.402 201.188 148.236V133.663C201.252 132.951 200.605 132.368 199.827 132.433Z" fill="#EEC94D"/>
<path d="M204.685 149.208L214.983 138.91C215.502 138.392 215.437 137.485 214.919 137.031C211.874 134.505 208.053 132.886 203.908 132.498C203.131 132.433 202.483 133.016 202.483 133.728V148.301C202.483 149.402 203.843 149.985 204.685 149.208Z" fill="#EEC94D"/>
<path d="M206.434 152.252H221.007C221.784 152.252 222.367 151.605 222.238 150.827C221.849 146.682 220.165 142.861 217.704 139.817C217.25 139.234 216.344 139.169 215.825 139.752L205.527 150.05C204.75 150.892 205.333 152.252 206.434 152.252Z" fill="#EEC94D"/>
<path d="M221.072 153.483H206.499C205.398 153.483 204.815 154.843 205.592 155.62L215.89 165.919C216.409 166.437 217.315 166.372 217.769 165.854C220.295 162.81 221.914 158.988 222.303 154.843C222.367 154.131 221.784 153.483 221.072 153.483Z" fill="#EEC94D"/>
<path d="M199.115 156.527L188.816 166.825C188.298 167.343 188.363 168.25 188.881 168.704C191.925 171.23 195.747 172.849 199.892 173.237C200.669 173.302 201.317 172.719 201.317 172.007V157.434C201.252 156.333 199.892 155.75 199.115 156.527Z" fill="#EEC94D"/>
<path d="M204.685 156.527C203.908 155.75 202.548 156.268 202.548 157.434V172.007C202.548 172.784 203.196 173.367 203.973 173.237C208.118 172.849 211.939 171.165 214.984 168.703C215.567 168.25 215.631 167.343 215.048 166.825L204.685 156.527Z" fill="#EEC94D"/>
<path d="M78.1229 158.239C78.1229 158.239 81.2007 159.383 82.9594 157.238C84.7182 155.093 87.3563 149.016 93.292 147.014C94.8309 146.514 96.15 146.085 97.3225 145.727C99.8873 144.941 101.939 143.01 102.819 140.508C103.771 137.934 105.823 134.645 110.293 132.643C118.427 129.069 118.281 126.066 119.233 123.492C120.186 120.918 126.561 128.783 125.169 139.15C123.777 149.516 113.591 156.451 113.591 156.451C113.591 156.451 109.267 161.885 99.7407 164.53C90.2875 167.176 85.964 161.671 84.2785 160.813C82.6663 159.955 79.6618 162.457 78.1962 161.17C76.8771 159.955 78.1229 158.239 78.1229 158.239Z" fill="#D4E86D"/>
<path d="M125.169 139.221C126.562 128.854 120.186 120.918 119.234 123.563C118.647 125.208 118.501 126.995 116.376 128.997C117.548 130.928 118.721 134.002 118.574 138.721C118.281 148.158 109.341 146.943 106.483 150.088C103.625 153.234 104.138 160.741 94.3913 161.456C88.6022 161.885 85.2313 159.097 83.4725 156.594C83.2527 156.88 83.1061 157.095 82.9595 157.309C81.2008 159.454 78.123 158.31 78.123 158.31C78.123 158.31 76.8773 159.955 78.2696 161.242C79.6619 162.529 82.6664 160.026 84.3519 160.884C85.9641 161.742 90.2876 167.247 99.8141 164.602C109.267 161.957 113.664 156.523 113.664 156.523C113.664 156.523 123.704 149.588 125.169 139.221Z" fill="#B5CD5A"/>
<path d="M213.055 101C210.315 101 210.315 105.293 213.055 105.293C215.795 105.202 215.795 101 213.055 101Z" fill="#FFF1CE"/>
<path d="M163.016 250.011H162.925C162.377 250.103 161.92 250.742 162.012 251.29C162.012 251.838 162.377 252.478 162.925 252.569H163.016C163.839 252.752 164.661 252.204 164.661 251.29C164.661 250.377 163.839 249.92 163.016 250.011Z" fill="#FFF1CE"/>
<path d="M137.85 87C135.383 87 135.383 90.8363 137.85 90.8363C140.316 90.8363 140.316 87 137.85 87Z" fill="#FFF1CE"/>
<path d="M71.3641 184.675C71.3641 184.675 74.5152 185.533 76.0541 183.245C77.593 180.957 79.7181 174.666 85.434 172.163C86.8996 171.52 88.2187 170.948 89.3179 170.519C91.8094 169.446 93.7147 167.373 94.3743 164.871C95.0338 162.225 96.7925 158.794 101.043 156.434C108.884 152.144 108.371 149.213 109.104 146.568C109.836 143.922 116.871 151.215 116.432 161.653C115.992 172.092 106.466 179.885 106.466 179.885C106.466 179.885 102.655 185.676 93.4216 189.108C84.1882 192.539 79.425 187.463 77.7395 186.748C76.0541 186.033 73.2694 188.75 71.7305 187.606C70.3382 186.462 71.3641 184.675 71.3641 184.675Z" fill="#D4E86D"/>
<path d="M116.505 161.653C116.945 151.215 109.837 143.851 109.177 146.568C108.737 148.284 108.737 150.071 106.832 152.287C108.224 154.075 109.617 157.077 109.91 161.796C110.423 171.234 101.483 170.805 98.9177 174.165C96.3529 177.525 97.5254 184.961 87.9256 186.534C82.1364 187.463 78.6189 184.961 76.6404 182.601C76.4938 182.887 76.3472 183.173 76.2007 183.388C74.6618 185.676 71.5107 184.818 71.5107 184.818C71.5107 184.818 70.4848 186.605 71.9504 187.749C73.4893 188.893 76.274 186.176 77.9594 186.891C79.6449 187.606 84.4814 192.682 93.6415 189.25C102.875 185.819 106.685 180.028 106.685 180.028C106.685 180.028 116.065 172.092 116.505 161.653Z" fill="#B5CD5A"/>
</svg>
