<svg width="375" height="794" viewBox="0 0 375 794" fill="none" xmlns="http://www.w3.org/2000/svg">
<path d="M506 644.746C520.081 603.021 522.714 510.325 467.812 473.03C412.909 435.734 315.471 452.013 279 473.03C242.529 494.047 108.5 503 128 435.246C154.56 342.959 166.5 306.746 100 329.246C33.5 351.746 62.4765 291.629 -12 301.746C-71.5812 309.839 -132 398.746 -183 294.746" stroke="#3DA0A7"/>
<path d="M20.118 60.1502C36.3349 83.0634 16.9802 102.828 2.69825 103.553C-48.6615 105.599 -36.4129 85.8455 -31.8172 53.6139C-27.2215 21.3822 3.90112 37.2371 20.118 60.1502Z" stroke="#3DA0A7"/>
<path d="M163.26 -59.2404C169.419 -53.8555 179.032 -34.527 168.217 -0.291725C154.698 42.5024 127.736 130.658 187.691 136.593C247.646 142.529 293.355 123.192 284.984 100.957C276.613 78.7229 228.24 94.9269 243.548 156.139C258.857 217.351 339.498 249.011 399.919 205.472" stroke="#3DA0A7"/>
</svg>
