<svg width="16" height="16" viewBox="0 0 16 16" fill="none" xmlns="http://www.w3.org/2000/svg">
<path d="M11.9727 13.3583C10.9113 14.4098 9.50206 14.9869 7.99993 14.9869C6.4978 14.9869 5.08857 14.4098 4.0272 13.3583C2.96978 12.3088 2.38672 10.9173 2.38672 9.43695C2.38672 8.57718 2.58041 7.75299 2.96188 6.98612C3.33345 6.23703 3.88687 5.567 4.55887 5.05114C4.98745 4.72342 5.37617 4.34664 5.71709 3.9285C6.21121 3.32567 6.5986 2.65366 6.86741 1.93225C6.97767 1.63466 7.05779 1.32677 7.10656 1.01318C7.58289 1.45196 7.98214 1.98166 8.31617 2.60228C8.97631 3.83955 9.28069 4.94046 9.2214 5.87731C9.20723 6.09796 9.24327 6.31894 9.3268 6.52366C9.41033 6.72838 9.53918 6.91149 9.70366 7.05925C9.8462 7.18801 10.0129 7.28716 10.1941 7.35095C10.3753 7.41474 10.5673 7.44189 10.7591 7.43082C11.1485 7.41106 11.5062 7.23911 11.7671 6.94856C12.03 6.65407 12.2573 6.35364 12.447 6.04729C12.7237 6.40108 12.955 6.78649 13.1388 7.20155C13.453 7.90913 13.6131 8.66217 13.6131 9.43695C13.6131 10.9173 13.0301 12.3108 11.9727 13.3583Z" stroke="#97A2B0" stroke-linejoin="round"/>
<path d="M8.84726 11.9546C8.42128 12.3766 7.8557 12.6083 7.25283 12.6083C6.64996 12.6083 6.08437 12.3766 5.6584 11.9546C5.23401 11.5334 5 10.975 5 10.3808C5 10.0358 5.07774 9.70498 5.23084 9.3972C5.37997 9.09656 5.60208 8.82765 5.87178 8.62061C6.04379 8.48908 6.1998 8.33786 6.33662 8.17004C6.53494 7.9281 6.69041 7.6584 6.7983 7.36886C6.84255 7.24943 6.8747 7.12585 6.89428 7C7.08545 7.1761 7.24569 7.38869 7.37975 7.63777C7.64469 8.13435 7.76685 8.57619 7.74306 8.95219C7.73737 9.04074 7.75183 9.12943 7.78536 9.21159C7.81888 9.29376 7.87059 9.36725 7.93661 9.42655C7.99382 9.47823 8.06072 9.51802 8.13344 9.54362C8.20616 9.56922 8.28324 9.58012 8.3602 9.57568C8.51647 9.56775 8.66005 9.49873 8.76476 9.38213C8.87026 9.26393 8.96149 9.14336 9.03764 9.02041C9.14869 9.1624 9.2415 9.31708 9.31528 9.48366C9.4414 9.76765 9.50566 10.0699 9.50566 10.3808C9.50566 10.975 9.27165 11.5342 8.84726 11.9546Z" stroke="#97A2B0" stroke-linejoin="round"/>
</svg>
