<svg width="24" height="24" viewBox="0 0 24 24" fill="none" xmlns="http://www.w3.org/2000/svg">
<path fill-rule="evenodd" clip-rule="evenodd" d="M10.8775 0C13.7359 0 16.0615 2.388 16.0615 5.3232V6.4416C16.0615 6.9384 15.6688 7.3416 15.185 7.3416C14.7012 7.3416 14.3085 6.9384 14.3085 6.4416V5.3232C14.3085 3.3792 12.7695 1.8 10.8775 1.8H5.18048C3.29082 1.8 1.75293 3.3792 1.75293 5.3232V18.678C1.75293 20.6208 3.29082 22.2 5.18048 22.2H10.8903C12.7741 22.2 14.3085 20.6256 14.3085 18.6912V17.5596C14.3085 17.0628 14.7012 16.6596 15.185 16.6596C15.6688 16.6596 16.0615 17.0628 16.0615 17.5596V18.6912C16.0615 21.6192 13.7406 24 10.8903 24H5.18048C2.32438 24 0 21.6132 0 18.678V5.3232C0 2.388 2.32438 0 5.18048 0H10.8775ZM20.32 7.8648L23.7417 11.3628C23.7723 11.3939 23.7996 11.4262 23.8246 11.4605L23.7417 11.3628C23.7831 11.4047 23.82 11.4505 23.8519 11.4994C23.866 11.5215 23.8795 11.5444 23.8921 11.5679C23.9023 11.5863 23.9117 11.6055 23.9204 11.625C23.9278 11.6422 23.9349 11.6594 23.9414 11.6769C23.9502 11.6997 23.9579 11.7232 23.9647 11.7469C23.9698 11.7656 23.9745 11.7843 23.9786 11.8032C23.9838 11.8261 23.9879 11.8492 23.9912 11.8724C23.993 11.8875 23.9948 11.9034 23.9962 11.9193C23.9988 11.9467 24 11.9733 24 12L23.994 12.0744L23.9916 12.1221C23.9914 12.1241 23.9911 12.1261 23.9908 12.1282L24 12C24 12.0666 23.9928 12.1326 23.9789 12.1967C23.9745 12.2157 23.9698 12.2344 23.9646 12.2528C23.9579 12.2768 23.9502 12.3003 23.9416 12.3233C23.9349 12.3406 23.9278 12.3578 23.9202 12.3748C23.9117 12.3945 23.9023 12.4137 23.8922 12.4326C23.8795 12.4556 23.866 12.4785 23.8515 12.5007C23.8433 12.5138 23.8343 12.5268 23.8249 12.5396C23.7971 12.5772 23.7668 12.6125 23.734 12.6453L20.32 16.1364C20.1494 16.3116 19.925 16.3992 19.7018 16.3992C19.4775 16.3992 19.2519 16.3116 19.0813 16.134C18.7401 15.7812 18.7412 15.2124 19.0836 14.862L21 12.9H9.05187C8.56806 12.9 8.17541 12.4968 8.17541 12C8.17541 11.5032 8.56806 11.1 9.05187 11.1H21.0024L19.0836 9.1392C18.7412 8.7888 18.7389 8.22 19.0813 7.8672C19.4225 7.5144 19.9765 7.5144 20.32 7.8648Z" fill="#DF6565"/>
</svg>
