<svg width="20" height="20" viewBox="0 0 20 20" fill="none" xmlns="http://www.w3.org/2000/svg">
<g clip-path="url(#clip0_701_900)">
<path fill-rule="evenodd" clip-rule="evenodd" d="M9.99992 0.833496C10.2209 0.833496 10.4329 0.921293 10.5892 1.07757C10.7455 1.23385 10.8333 1.44582 10.8333 1.66683V3.3335C10.8333 3.55451 10.7455 3.76647 10.5892 3.92275C10.4329 4.07903 10.2209 4.16683 9.99992 4.16683C9.7789 4.16683 9.56694 4.07903 9.41066 3.92275C9.25438 3.76647 9.16658 3.55451 9.16658 3.3335V1.66683C9.16658 1.44582 9.25438 1.23385 9.41066 1.07757C9.56694 0.921293 9.7789 0.833496 9.99992 0.833496ZM4.99992 10.0002C4.99992 8.67408 5.5267 7.40231 6.46438 6.46463C7.40207 5.52695 8.67383 5.00016 9.99992 5.00016C11.326 5.00016 12.5978 5.52695 13.5355 6.46463C14.4731 7.40231 14.9999 8.67408 14.9999 10.0002C14.9999 11.3262 14.4731 12.598 13.5355 13.5357C12.5978 14.4734 11.326 15.0002 9.99992 15.0002C8.67383 15.0002 7.40207 14.4734 6.46438 13.5357C5.5267 12.598 4.99992 11.3262 4.99992 10.0002ZM9.99992 6.66683C9.11586 6.66683 8.26802 7.01802 7.64289 7.64314C7.01777 8.26826 6.66658 9.11611 6.66658 10.0002C6.66658 10.8842 7.01777 11.7321 7.64289 12.3572C8.26802 12.9823 9.11586 13.3335 9.99992 13.3335C10.884 13.3335 11.7318 12.9823 12.3569 12.3572C12.9821 11.7321 13.3333 10.8842 13.3333 10.0002C13.3333 9.11611 12.9821 8.26826 12.3569 7.64314C11.7318 7.01802 10.884 6.66683 9.99992 6.66683ZM10.8333 16.6668C10.8333 16.4458 10.7455 16.2339 10.5892 16.0776C10.4329 15.9213 10.2209 15.8335 9.99992 15.8335C9.7789 15.8335 9.56694 15.9213 9.41066 16.0776C9.25438 16.2339 9.16658 16.4458 9.16658 16.6668V18.3335C9.16658 18.5545 9.25438 18.7665 9.41066 18.9228C9.56694 19.079 9.7789 19.1668 9.99992 19.1668C10.2209 19.1668 10.4329 19.079 10.5892 18.9228C10.7455 18.7665 10.8333 18.5545 10.8333 18.3335V16.6668ZM19.1666 10.0002C19.1666 10.2212 19.0788 10.4331 18.9225 10.5894C18.7662 10.7457 18.5543 10.8335 18.3332 10.8335H16.6666C16.4456 10.8335 16.2336 10.7457 16.0773 10.5894C15.921 10.4331 15.8332 10.2212 15.8332 10.0002C15.8332 9.77915 15.921 9.56719 16.0773 9.41091C16.2336 9.25463 16.4456 9.16683 16.6666 9.16683H18.3332C18.5543 9.16683 18.7662 9.25463 18.9225 9.41091C19.0788 9.56719 19.1666 9.77915 19.1666 10.0002ZM3.33325 10.8335C3.55427 10.8335 3.76623 10.7457 3.92251 10.5894C4.07879 10.4331 4.16658 10.2212 4.16658 10.0002C4.16658 9.77915 4.07879 9.56719 3.92251 9.41091C3.76623 9.25463 3.55427 9.16683 3.33325 9.16683H1.66659C1.44557 9.16683 1.23361 9.25463 1.07733 9.41091C0.921049 9.56719 0.833252 9.77915 0.833252 10.0002C0.833252 10.2212 0.921049 10.4331 1.07733 10.5894C1.23361 10.7457 1.44557 10.8335 1.66659 10.8335H3.33325ZM16.4816 3.5185C16.6378 3.67477 16.7256 3.88669 16.7256 4.10766C16.7256 4.32863 16.6378 4.54056 16.4816 4.69683L15.3032 5.87516C15.2264 5.95475 15.1344 6.01824 15.0328 6.06191C14.9311 6.10559 14.8217 6.12858 14.7111 6.12954C14.6004 6.1305 14.4907 6.10941 14.3883 6.06751C14.2859 6.02561 14.1928 5.96374 14.1146 5.88549C14.0363 5.80725 13.9745 5.7142 13.9326 5.61179C13.8907 5.50938 13.8696 5.39964 13.8705 5.28899C13.8715 5.17835 13.8945 5.069 13.9382 4.96733C13.9818 4.86566 14.0453 4.7737 14.1249 4.69683L15.3032 3.5185C15.4595 3.36227 15.6714 3.27451 15.8924 3.27451C16.1134 3.27451 16.3253 3.36227 16.4816 3.5185ZM5.87492 15.3035C5.95451 15.2266 6.01799 15.1347 6.06167 15.033C6.10534 14.9313 6.12833 14.822 6.12929 14.7113C6.13025 14.6007 6.10917 14.4909 6.06727 14.3885C6.02537 14.2861 5.96349 14.1931 5.88525 14.1148C5.807 14.0366 5.71396 13.9747 5.61155 13.9328C5.50913 13.8909 5.3994 13.8698 5.28875 13.8708C5.1781 13.8717 5.06875 13.8947 4.96708 13.9384C4.86541 13.9821 4.77346 14.0456 4.69658 14.1252L3.51825 15.3035C3.43866 15.3804 3.37517 15.4723 3.3315 15.574C3.28783 15.6757 3.26484 15.785 3.26388 15.8957C3.26291 16.0063 3.284 16.116 3.3259 16.2185C3.3678 16.3209 3.42968 16.4139 3.50792 16.4922C3.58617 16.5704 3.67921 16.6323 3.78162 16.6742C3.88404 16.7161 3.99377 16.7372 4.10442 16.7362C4.21507 16.7352 4.32442 16.7123 4.42609 16.6686C4.52776 16.6249 4.61971 16.5614 4.69658 16.4818L5.87492 15.3035ZM3.51825 3.5185C3.67452 3.36227 3.88645 3.27451 4.10742 3.27451C4.32839 3.27451 4.54031 3.36227 4.69658 3.5185L5.87492 4.69683C5.95451 4.7737 6.01799 4.86566 6.06167 4.96733C6.10534 5.069 6.12833 5.17835 6.12929 5.28899C6.13025 5.39964 6.10917 5.50938 6.06727 5.61179C6.02537 5.7142 5.96349 5.80725 5.88525 5.88549C5.807 5.96374 5.71396 6.02561 5.61155 6.06751C5.50913 6.10941 5.3994 6.1305 5.28875 6.12954C5.1781 6.12858 5.06875 6.10559 4.96708 6.06191C4.86541 6.01824 4.77346 5.95475 4.69658 5.87516L3.51825 4.69683C3.36203 4.54056 3.27426 4.32863 3.27426 4.10766C3.27426 3.88669 3.36203 3.67477 3.51825 3.5185ZM15.3032 14.1252C15.1461 13.9734 14.9356 13.8894 14.7171 13.8913C14.4986 13.8932 14.2896 13.9808 14.1351 14.1353C13.9806 14.2898 13.8929 14.4988 13.891 14.7173C13.8891 14.9358 13.9731 15.1463 14.1249 15.3035L15.3032 16.4818C15.4604 16.6336 15.6709 16.7176 15.8894 16.7157C16.1079 16.7138 16.3169 16.6262 16.4714 16.4717C16.6259 16.3172 16.7136 16.1082 16.7155 15.8897C16.7174 15.6712 16.6334 15.4607 16.4816 15.3035L15.3032 14.1252Z" fill="#4D8194"/>
</g>
<defs>
<clipPath id="clip0_701_900">
<rect width="20" height="20" fill="white"/>
</clipPath>
</defs>
</svg>
